<svg width="375" height="100" viewBox="0 0 375 100" fill="none" xmlns="http://www.w3.org/2000/svg">
<circle cx="56.25" cy="51.25" r="38.75" fill="url(#paint0_linear_223_18479)"/>
<path d="M55 7.5L57.1651 11.25H52.8349L55 7.5Z" fill="#FDB813"/>
<path d="M55 95L52.8349 91.25H57.1651L55 95Z" fill="#FDB813"/>
<path d="M74.1905 11.055L74.5708 15.3684L70.6451 13.5411L74.1905 11.055Z" fill="#FDB813"/>
<path d="M37.2665 90.3825L36.8861 86.0691L40.8118 87.8964L37.2665 90.3825Z" fill="#FDB813"/>
<path d="M12.5 50L16.25 47.8349L16.25 52.1651L12.5 50Z" fill="#FDB813"/>
<path d="M100 50L96.25 52.1651L96.25 47.8349L100 50Z" fill="#FDB813"/>
<path d="M24.2677 81.1395L25.3884 76.9569L28.4503 80.0187L24.2677 81.1395Z" fill="#FDB813"/>
<path d="M86.1394 19.2678L85.0187 23.4503L81.9568 20.3885L86.1394 19.2678Z" fill="#FDB813"/>
<path d="M15.923 34.8231L20.2074 34.1955L18.6087 38.2197L15.923 34.8231Z" fill="#FDB813"/>
<path d="M97.2407 67.1285L92.9563 67.7561L94.555 63.7319L97.2407 67.1285Z" fill="#FDB813"/>
<path d="M15.9103 66.6907L18.6144 63.3087L20.1912 67.3416L15.9103 66.6907Z" fill="#FDB813"/>
<path d="M97.4027 34.8284L94.6985 38.2103L93.1217 34.1775L97.4027 34.8284Z" fill="#FDB813"/>
<path d="M37.2766 11.0329L40.7977 13.5531L36.8546 15.3424L37.2766 11.0329Z" fill="#FDB813"/>
<path d="M73.433 90.7132L69.9118 88.193L73.855 86.4037L73.433 90.7132Z" fill="#FDB813"/>
<path d="M86.1393 83.6393L81.9568 82.5186L85.0186 79.4568L86.1393 83.6393Z" fill="#FDB813"/>
<path d="M24.2678 21.7676L28.4503 22.8884L25.3885 25.9502L24.2678 21.7676Z" fill="#FDB813"/>
<path d="M39.8125 74.5V33.75H49V49.4375H63.0625V33.75H72.3125V74.5H63.0625V57.5H49V74.5H39.8125ZM119.501 75.25C116.876 75.25 114.397 74.625 112.064 73.375C109.772 72.0833 107.918 70.2292 106.501 67.8125C105.085 65.3542 104.376 62.4167 104.376 59C104.376 55.5417 105.085 52.6042 106.501 50.1875C107.918 47.7708 109.772 45.9375 112.064 44.6875C114.397 43.3958 116.876 42.75 119.501 42.75C122.126 42.75 124.585 43.3958 126.876 44.6875C129.168 45.9375 131.022 47.7708 132.439 50.1875C133.856 52.6042 134.564 55.5417 134.564 59C134.564 62.4167 133.856 65.3542 132.439 67.8125C131.022 70.2292 129.168 72.0833 126.876 73.375C124.585 74.625 122.126 75.25 119.501 75.25ZM119.501 67.8125C121.376 67.8125 122.793 67.0208 123.751 65.4375C124.71 63.8125 125.189 61.6667 125.189 59C125.189 56.2917 124.71 54.1458 123.751 52.5625C122.793 50.9792 121.376 50.1875 119.501 50.1875C117.585 50.1875 116.147 50.9792 115.189 52.5625C114.272 54.1458 113.814 56.2917 113.814 59C113.814 61.6667 114.272 63.8125 115.189 65.4375C116.147 67.0208 117.585 67.8125 119.501 67.8125ZM155.544 75.25C152.378 75.25 150.169 74.3125 148.919 72.4375C147.711 70.5208 147.107 68 147.107 64.875V30.6875H156.294V65.25C156.294 66.2083 156.461 66.875 156.794 67.25C157.169 67.625 157.544 67.8125 157.919 67.8125C158.128 67.8125 158.294 67.8125 158.419 67.8125C158.586 67.7708 158.794 67.7292 159.044 67.6875L160.169 74.5C159.669 74.7083 159.024 74.875 158.232 75C157.482 75.1667 156.586 75.25 155.544 75.25ZM171.24 74.5V43.5H180.428V74.5H171.24ZM175.803 38.9375C174.261 38.9375 173.011 38.5 172.053 37.625C171.094 36.75 170.615 35.5833 170.615 34.125C170.615 32.6667 171.094 31.5 172.053 30.625C173.011 29.75 174.261 29.3125 175.803 29.3125C177.344 29.3125 178.594 29.75 179.553 30.625C180.511 31.5 180.99 32.6667 180.99 34.125C180.99 35.5833 180.511 36.75 179.553 37.625C178.594 38.5 177.344 38.9375 175.803 38.9375ZM205.826 75.25C201.992 75.25 198.909 73.8125 196.576 70.9375C194.284 68.0208 193.138 64.0417 193.138 59C193.138 55.625 193.742 52.7292 194.951 50.3125C196.201 47.8542 197.805 45.9792 199.763 44.6875C201.763 43.3958 203.847 42.75 206.013 42.75C207.722 42.75 209.159 43.0417 210.326 43.625C211.492 44.2083 212.597 45 213.638 46L213.263 41.25V30.6875H222.451V74.5H214.951L214.326 71.4375H214.076C212.992 72.5208 211.722 73.4375 210.263 74.1875C208.805 74.8958 207.326 75.25 205.826 75.25ZM208.201 67.75C209.201 67.75 210.097 67.5417 210.888 67.125C211.722 66.7083 212.513 65.9792 213.263 64.9375V52.25C212.472 51.5 211.617 50.9792 210.701 50.6875C209.826 50.3958 208.972 50.25 208.138 50.25C206.68 50.25 205.388 50.9583 204.263 52.375C203.138 53.75 202.576 55.9167 202.576 58.875C202.576 61.9167 203.055 64.1667 204.013 65.625C205.013 67.0417 206.409 67.75 208.201 67.75ZM244.653 75.25C241.82 75.25 239.57 74.3542 237.903 72.5625C236.237 70.7292 235.403 68.5 235.403 65.875C235.403 62.625 236.778 60.0833 239.528 58.25C242.278 56.4167 246.716 55.1875 252.841 54.5625C252.757 53.1875 252.341 52.1042 251.591 51.3125C250.882 50.4792 249.674 50.0625 247.966 50.0625C246.674 50.0625 245.362 50.3125 244.028 50.8125C242.695 51.3125 241.278 52 239.778 52.875L236.466 46.8125C238.424 45.6042 240.507 44.625 242.716 43.875C244.966 43.125 247.299 42.75 249.716 42.75C253.674 42.75 256.716 43.8958 258.841 46.1875C260.966 48.4792 262.028 52 262.028 56.75V74.5H254.528L253.903 71.3125H253.653C252.362 72.4792 250.966 73.4375 249.466 74.1875C248.007 74.8958 246.403 75.25 244.653 75.25ZM247.778 68.125C248.82 68.125 249.716 67.8958 250.466 67.4375C251.257 66.9375 252.049 66.2917 252.841 65.5V60.0625C249.591 60.4792 247.341 61.1458 246.091 62.0625C244.841 62.9375 244.216 63.9792 244.216 65.1875C244.216 66.1875 244.528 66.9375 245.153 67.4375C245.82 67.8958 246.695 68.125 247.778 68.125ZM274.362 74.5V69.5625L287.362 50.6875H275.8V43.5H298.8V48.375L285.8 67.3125H299.237V74.5H274.362ZM324.312 75.25C321.354 75.25 318.687 74.6042 316.312 73.3125C313.937 72.0208 312.062 70.1667 310.687 67.75C309.312 65.3333 308.625 62.4167 308.625 59C308.625 55.625 309.312 52.7292 310.687 50.3125C312.104 47.8958 313.937 46.0417 316.187 44.75C318.437 43.4167 320.791 42.75 323.25 42.75C326.208 42.75 328.645 43.4167 330.562 44.75C332.52 46.0417 333.979 47.8125 334.937 50.0625C335.937 52.2708 336.437 54.7917 336.437 57.625C336.437 58.4167 336.395 59.2083 336.312 60C336.229 60.75 336.145 61.3125 336.062 61.6875H317.5C317.916 63.9375 318.854 65.6042 320.312 66.6875C321.77 67.7292 323.52 68.25 325.562 68.25C327.77 68.25 330 67.5625 332.25 66.1875L335.312 71.75C333.729 72.8333 331.958 73.6875 330 74.3125C328.041 74.9375 326.145 75.25 324.312 75.25ZM317.437 55.625H328.625C328.625 53.9167 328.208 52.5208 327.375 51.4375C326.583 50.3125 325.27 49.75 323.437 49.75C322.02 49.75 320.75 50.25 319.625 51.25C318.5 52.2083 317.77 53.6667 317.437 55.625Z" fill="white"/>
<defs>
<linearGradient id="paint0_linear_223_18479" x1="28" y1="24" x2="85.75" y2="76.25" gradientUnits="userSpaceOnUse">
<stop stop-color="#FEC846"/>
<stop offset="0.516171" stop-color="#FBA60B"/>
<stop offset="1" stop-color="#E68A00"/>
</linearGradient>
</defs>
</svg>
